<!DOCTYPE svg PUBLIC "-//W3C//DTD SVG 20010904//EN" "http://www.w3.org/TR/2001/REC-SVG-20010904/DTD/svg10.dtd">
<svg version="1.0" xmlns="http://www.w3.org/2000/svg" width="915px" height="423px" viewBox="0 0 9150 4230" preserveAspectRatio="xMidYMid meet">
<g id="layer101" fill="#feec00" stroke="none">
 <path d="M2575 4215 c-66 -8 -138 -18 -160 -24 -22 -7 -48 -13 -58 -16 -9 -2 -22 -7 -27 -10 -5 -3 -19 -8 -30 -10 -37 -7 -144 -59 -223 -107 -79 -48 -79 -48 -105 -30 -68 45 -248 125 -306 136 -14 3 -29 7 -34 10 -5 3 -19 7 -33 10 -13 2 -60 12 -104 22 -116 26 -608 26 -705 0 -36 -9 -73 -19 -83 -21 -9 -2 -22 -7 -27 -10 -5 -3 -20 -8 -32 -10 -12 -3 -54 -20 -94 -39 -246 -117 -437 -328 -512 -566 -67 -211 -49 -683 38 -980 5 -19 24 -84 41 -145 31 -110 122 -393 139 -430 5 -11 25 -65 45 -120 20 -55 42 -114 50 -132 8 -17 15 -34 15 -38 0 -3 8 -25 19 -48 10 -23 33 -76 51 -117 18 -41 43 -99 56 -128 13 -29 36 -80 50 -115 29 -69 221 -451 285 -567 227 -412 464 -606 852 -699 60 -14 462 -15 525 0 117 26 141 34 209 67 70 34 145 100 199 176 19 27 21 27 38 11 57 -57 229 -151 356 -194 190 -65 282 -77 635 -87 215 -5 419 8 530 34 104 24 261 102 357 176 l38 28 122 -60 c116 -57 248 -106 348 -130 25 -6 70 -17 100 -24 40 -9 150 -13 400 -13 375 1 408 5 620 70 123 38 343 164 406 233 l32 35 49 -39 c78 -65 310 -194 347 -194 7 0 16 -4 22 -8 16 -15 164 -56 304 -84 90 -17 584 -17 660 1 30 7 75 18 100 23 306 69 575 269 733 544 26 45 47 84 47 88 0 3 9 25 19 49 77 168 112 411 92 649 -17 205 -44 407 -71 533 -24 116 -116 434 -140 490 -5 11 -21 56 -36 100 -46 138 -164 425 -222 540 -132 266 -242 436 -408 635 -64 76 -94 107 -209 210 -44 40 -209 147 -288 186 -58 29 -171 77 -187 79 -3 0 -18 5 -35 12 -193 73 -729 80 -995 12 -205 -52 -422 -177 -550 -315 l-45 -49 -95 71 c-185 139 -395 245 -570 290 -8 2 -33 8 -55 14 -22 6 -103 17 -180 25 -452 47 -798 -16 -1040 -187 -22 -16 -50 -35 -61 -44 -20 -14 -25 -12 -69 17 -57 39 -219 119 -239 119 -8 0 -17 4 -20 9 -3 4 -20 12 -38 16 -18 4 -35 9 -38 9 -117 38 -209 55 -359 66 -170 13 -294 11 -446 -5z m376 -245 c197 -19 393 -72 534 -142 78 -40 191 -118 235 -163 19 -19 38 -35 44 -35 5 0 24 18 43 40 91 105 286 220 453 264 196 53 459 59 662 16 319 -67 617 -236 830 -470 39 -44 75 -80 80 -80 4 0 24 33 44 73 95 189 218 308 406 397 331 155 849 139 1203 -37 230 -115 414 -288 586 -552 269 -411 546 -1191 620 -1741 17 -126 17 -395 0 -490 -81 -455 -370 -713 -861 -771 -127 -14 -361 -7 -483 15 -272 50 -515 175 -706 363 -46 45 -88 80 -92 77 -5 -3 -18 -23 -29 -44 -51 -99 -171 -212 -303 -285 -284 -156 -789 -190 -1175 -79 -160 46 -333 131 -448 218 -26 20 -50 36 -54 36 -3 0 -22 -21 -41 -46 -73 -98 -236 -192 -417 -242 -94 -25 -106 -26 -367 -26 -231 1 -287 4 -385 22 -337 62 -565 191 -736 419 -32 43 -60 71 -65 66 -5 -5 -13 -45 -19 -88 -13 -102 -35 -162 -80 -222 -92 -123 -259 -183 -512 -183 -232 0 -396 54 -559 185 -125 101 -226 252 -404 606 -310 615 -562 1285 -654 1736 -72 354 -63 546 36 753 38 79 59 109 127 176 69 70 96 89 186 132 121 58 195 78 341 92 270 27 589 -30 797 -141 72 -38 175 -112 201 -143 12 -14 21 -9 78 43 215 194 536 285 884 251z"/>
 </g>
<g id="layer102" fill="#181714" stroke="none">
 <path d="M2655 3988 c-229 -26 -440 -115 -588 -249 -57 -52 -66 -57 -78 -43 -26 31 -129 105 -201 143 -208 111 -527 168 -797 141 -146 -14 -220 -34 -341 -92 -92 -45 -116 -61 -196 -142 -78 -78 -98 -105 -137 -186 -99 -207 -108 -399 -36 -753 92 -451 344 -1121 654 -1736 178 -354 281 -507 413 -617 179 -148 355 -202 625 -191 218 9 327 47 432 152 70 69 104 133 117 225 19 122 13 118 63 52 130 -173 324 -307 545 -377 174 -54 299 -69 585 -70 237 0 268 2 348 22 183 47 319 120 423 229 l61 64 47 -36 c115 -87 288 -172 448 -218 134 -39 249 -56 413 -62 377 -15 676 60 886 222 70 53 161 154 191 211 l22 41 89 -84 c110 -104 203 -171 327 -234 187 -94 372 -138 610 -147 485 -18 836 143 1018 467 44 78 95 227 113 330 17 95 17 365 0 490 -74 550 -351 1330 -620 1741 -247 379 -541 597 -911 677 -379 83 -783 28 -1027 -139 -115 -79 -228 -208 -292 -337 l-32 -64 -76 81 c-283 305 -660 481 -1069 498 -364 15 -639 -78 -866 -295 l-58 -55 -47 45 c-174 162 -441 267 -762 298 -118 11 -183 11 -296 -2z m270 -308 c480 -45 760 -273 743 -604 -6 -132 -72 -212 -206 -251 -122 -36 -364 -29 -552 16 -46 11 -87 16 -91 12 -8 -9 45 -215 94 -368 37 -115 16 -106 192 -85 207 24 388 1 497 -63 144 -84 253 -313 218 -458 -32 -133 -192 -188 -489 -167 -81 6 -127 6 -134 -1 -7 -7 -2 -28 13 -63 30 -71 116 -244 141 -285 l21 -33 111 0 c184 0 395 -18 476 -41 205 -56 316 -171 343 -354 10 -69 9 -88 -6 -139 -31 -105 -134 -182 -304 -228 -65 -17 -105 -20 -262 -20 -440 2 -675 86 -866 313 -94 111 -162 213 -239 362 -230 441 -440 1045 -515 1477 -30 178 -38 385 -16 481 32 145 106 267 211 346 108 82 243 134 397 152 104 12 102 12 223 1z m1933 -15 c485 -93 864 -467 1045 -1031 56 -174 72 -263 72 -409 0 -114 -3 -136 -23 -179 -34 -74 -64 -108 -122 -140 -80 -44 -141 -56 -282 -56 -205 0 -339 35 -425 114 -98 88 -174 318 -132 399 32 62 126 117 200 117 16 0 32 6 35 14 8 20 -42 161 -82 234 -49 88 -141 182 -215 222 -128 68 -257 47 -307 -50 -22 -41 -23 -54 -18 -145 6 -115 33 -234 106 -458 140 -433 318 -840 426 -977 87 -110 159 -149 277 -150 77 0 80 1 114 35 40 40 40 51 2 174 -47 155 -5 248 129 288 68 20 186 21 262 4 203 -48 330 -194 379 -438 33 -160 25 -255 -29 -371 -90 -192 -353 -302 -725 -302 -247 0 -420 36 -600 125 -134 66 -217 128 -324 241 -252 266 -544 890 -690 1473 -64 255 -75 335 -76 531 0 201 12 264 76 395 97 200 277 317 544 355 83 12 283 4 383 -15z m2303 -18 c231 -61 423 -193 581 -399 210 -276 455 -831 578 -1313 74 -289 94 -426 94 -645 1 -219 -8 -267 -71 -400 -70 -145 -204 -245 -401 -297 -86 -23 -118 -26 -272 -27 -189 -1 -273 10 -405 51 -167 53 -293 132 -421 265 -149 156 -271 373 -419 748 -264 666 -385 1231 -331 1540 30 173 114 309 239 388 154 97 274 123 542 118 165 -3 203 -7 286 -29z m-5785 8 c259 -45 437 -158 519 -330 38 -77 65 -182 65 -250 0 -128 -75 -205 -228 -235 -64 -13 -299 -9 -334 5 -12 5 -20 2 -23 -7 -3 -8 83 -199 191 -424 540 -1123 676 -1493 620 -1686 -31 -109 -111 -152 -276 -152 -163 1 -273 42 -379 140 -102 94 -233 314 -401 674 -393 840 -622 1603 -571 1906 32 187 161 315 362 359 89 19 344 19 455 0z"/>
 <path d="M6916 2990 c-71 -22 -113 -103 -102 -198 26 -228 283 -972 461 -1338 108 -222 165 -274 301 -274 103 0 152 66 139 189 -22 228 -308 1063 -478 1396 -94 185 -202 260 -321 225z"/>
 <path d="M8831 473 c-58 -21 -133 -95 -149 -149 -26 -87 -7 -175 54 -248 34 -40 57 -52 123 -67 65 -13 160 3 204 35 97 70 116 262 36 359 -38 46 -124 87 -181 86 -24 0 -63 -8 -87 -16z m174 -79 c18 -8 17 -9 -9 -14 -22 -4 -37 -17 -56 -50 -37 -64 -58 -65 -62 -3 -2 40 -7 49 -24 51 -38 5 -45 -18 -42 -144 l3 -119 81 -3 c69 -2 84 0 107 18 36 28 37 81 3 115 -21 20 -22 26 -10 36 8 6 22 27 30 45 18 39 30 36 50 -12 48 -115 -36 -244 -158 -244 -56 0 -122 33 -147 73 -65 106 -9 247 106 266 38 7 91 1 128 -15z m-55 -198 c0 -15 -21 -26 -51 -26 -12 0 -19 7 -19 20 0 16 7 20 35 20 23 0 35 -5 35 -14z"/>
 </g>
<g id="layer103" fill="#fefefe" stroke="none">
 <path d="M2702 3699 c-271 -32 -477 -165 -578 -373 -53 -110 -68 -196 -61 -360 15 -375 169 -922 416 -1481 134 -301 240 -481 380 -642 202 -231 430 -313 871 -315 157 0 197 3 262 20 112 30 185 69 250 133 77 76 96 138 80 254 -15 101 -50 173 -118 239 -64 63 -144 108 -245 135 -80 22 -292 41 -470 41 -73 0 -110 4 -117 13 -25 30 -166 326 -159 334 2 2 57 -1 122 -5 65 -5 158 -5 205 -1 292 27 380 199 242 473 -30 61 -122 159 -180 193 -109 64 -289 87 -497 63 -60 -7 -119 -13 -129 -14 -16 -1 -24 15 -47 89 -32 102 -89 317 -89 332 0 6 29 3 77 -8 188 -45 439 -50 555 -11 148 50 218 143 218 291 0 144 -54 264 -166 371 -133 126 -340 206 -599 230 -121 11 -119 11 -223 -1z"/>
 <path d="M4475 3700 c-327 -46 -544 -230 -622 -525 -25 -97 -25 -378 1 -520 69 -379 215 -811 406 -1200 119 -243 229 -412 352 -540 118 -123 197 -183 333 -250 180 -89 353 -125 600 -125 502 0 795 200 795 542 0 80 -38 246 -75 325 -45 97 -141 199 -228 241 -167 81 -380 74 -479 -16 -71 -64 -85 -135 -49 -253 35 -116 36 -135 7 -163 -23 -24 -33 -26 -103 -26 -115 1 -181 35 -263 138 -101 127 -283 547 -420 969 -71 219 -100 342 -107 454 -5 82 -3 101 15 141 17 38 27 48 66 63 135 52 314 -42 415 -219 30 -52 72 -155 85 -208 6 -25 4 -28 -18 -28 -72 0 -180 -69 -215 -137 -17 -34 -13 -124 9 -187 87 -254 238 -346 568 -346 233 0 350 59 421 210 24 50 26 66 26 185 0 151 -22 266 -86 453 -186 541 -577 916 -1051 1007 -100 19 -300 27 -383 15z"/>
 <path d="M6607 3685 c-294 -56 -485 -240 -533 -515 -54 -309 67 -874 331 -1540 151 -384 270 -593 430 -759 138 -143 259 -220 430 -274 132 -41 216 -52 405 -51 154 1 186 4 272 27 253 67 408 216 475 457 14 53 18 102 17 260 0 219 -20 356 -94 645 -97 380 -299 876 -469 1153 -150 244 -339 427 -539 519 -141 65 -242 85 -457 89 -138 2 -212 -1 -268 -11z m427 -717 c62 -19 124 -87 183 -203 126 -247 353 -867 437 -1197 74 -287 56 -368 -81 -368 -129 0 -175 43 -279 255 -183 376 -442 1134 -460 1347 -12 136 71 204 200 166z"/>
 <path d="M921 3675 c-205 -45 -350 -189 -382 -379 -51 -303 178 -1066 571 -1906 173 -369 298 -578 410 -683 115 -109 221 -150 390 -151 119 0 187 21 241 75 161 161 57 490 -565 1782 -108 224 -196 409 -196 411 0 2 21 -1 48 -5 71 -12 244 -10 304 2 149 32 238 127 238 254 -1 135 -68 292 -168 392 -155 156 -363 224 -676 222 -88 0 -178 -6 -215 -14z"/>
 </g>

</svg>